<?xml version="1.0" standalone="no"?><!DOCTYPE svg PUBLIC "-//W3C//DTD SVG 1.1//EN" "http://www.w3.org/Graphics/SVG/1.1/DTD/svg11.dtd"><svg t="1570697429882" class="icon" viewBox="0 0 1024 1024" version="1.1" xmlns="http://www.w3.org/2000/svg" p-id="4137" width="16" height="16" xmlns:xlink="http://www.w3.org/1999/xlink"><defs><style type="text/css"></style></defs><path d="M856.17713428 933.875h-688.35708078C124.99988354 933.875 90.125 899.00011646 90.125 856.10963427V167.82286572C90.125 124.93238437 124.99988354 90.12781223 167.89036573 90.12781223h470.59999365a24.82022955 24.82022955 0 0 1 0 49.5701477H167.89036573c-15.53901086 0-28.19521884 12.65620798-28.19521885 28.12490579v688.35708078c0 15.46869863 12.65620798 28.12490662 28.12490662 28.12490662h688.35708078a28.12490662 28.12490662 0 0 0 28.12490579-28.12490662V385.4393284a24.82022955 24.82022955 0 0 1 49.5701477 0v470.67030588c0 42.89048218-34.87488354 77.6950535-77.69505349 77.69505349z" p-id="4138"></path><path d="M332.84294113 722.93820285a31.35927063 31.35927063 0 0 1-23.06242309-8.71872089c-11.10933819-11.10933819-8.71872089-26.85928574-7.94528641-32.06239288a156.09323007 156.09323007 0 0 1 6.6093533-25.4530404c7.31247556-21.65617777 18.28118931-46.4060951 26.29678711-63.28103906 18.77337487-39.65611816 47.4607793-92.81219101 66.65602753-112.00743925l362.10816815-362.10816733A99.14029459 99.14029459 0 0 1 834.02877012 90.12781223c26.71866128 0 51.74982752 10.40621512 70.59351462 29.24990304S933.87218777 163.2525686 933.87218777 189.97122988c0 26.64834906-10.40621512 51.67951529-29.24990304 70.5232024l-362.10816732 362.10816815c-21.79680222 21.86711444-82.82784924 52.52326282-101.03872633 61.45291956C411.73330328 698.53984665 358.01473182 722.93820285 332.84294113 722.93820285zM834.02877012 138.99483686a50.62483108 50.62483108 0 0 0-35.99987999 14.90620083l-362.10816814 362.10816733c-8.78903311 8.78903311-29.39052667 41.69517352-51.82013974 87.53877081-13.49995468 27.63272021-22.49992529 49.21858576-27.77334467 64.12478659 14.97651223-5.27342019 36.56237778-14.20307776 64.12478659-27.77334467 45.91390952-22.35930083 78.7497377-43.03110663 87.60908303-51.82013974l362.10816733-362.10816814a50.62483108 50.62483108 0 0 0 14.83588862-35.99987999 50.62483108 50.62483108 0 0 0-14.90620084-36.07019219 50.62483108 50.62483108 0 0 0-36.07019219-14.90620083z" p-id="4139"></path><path d="M768.07586484 160.44007794L863.55992206 271.81470716l-30.93739728 36.14050441-95.4840564-111.44494143 30.93739646-36.0701922zM472.62372503 441.6891408l95.4840564 111.3746284-30.93739645 36.14050442L441.68632776 477.759333 472.62372503 441.6891408z" p-id="4140"></path></svg>
