<?xml version="1.0" standalone="no"?><!DOCTYPE svg PUBLIC "-//W3C//DTD SVG 1.1//EN" "http://www.w3.org/Graphics/SVG/1.1/DTD/svg11.dtd"><svg t="1570697481254" class="icon" viewBox="0 0 1024 1024" version="1.1" xmlns="http://www.w3.org/2000/svg" p-id="5129" width="16" height="16" xmlns:xlink="http://www.w3.org/1999/xlink"><defs><style type="text/css"></style></defs><path d="M921.6 0C920.081067 0 918.715733 0.494933 917.316267 0.8704 915.9168 0.494933 914.551467 0 913.032533 0L294.365867 0C229.973333 0 153.6 50.824533 153.6 123.733333L153.6 819.2 102.4 819.2C45.9264 819.2 0 865.1264 0 921.6 0 978.0736 45.9264 1024 102.4 1024L721.066667 1024C785.988267 1024 836.266667 963.396267 836.266667 891.733333L836.266667 102.4C836.266667 66.048 872.2944 34.133333 910.728533 34.133333 912.605867 34.133333 914.466133 33.621333 916.309333 33.058133 917.998933 33.621333 919.722667 34.133333 921.6 34.133333 959.249067 34.133333 989.866667 64.750933 989.866667 102.4 989.866667 140.049067 959.249067 170.666667 921.6 170.666667 912.1792 170.666667 904.533333 178.312533 904.533333 187.733333 904.533333 197.154133 912.1792 204.8 921.6 204.8 978.0736 204.8 1024 158.856533 1024 102.4 1024 45.943467 978.0736 0 921.6 0L921.6 0ZM623.479467 989.866667 102.4 989.866667C64.7168 989.866667 34.133333 959.2832 34.133333 921.6 34.133333 883.9168 64.7168 853.333333 102.4 853.333333L623.479467 853.333333C607.232 871.4752 597.333333 895.402667 597.333333 921.6 597.333333 947.797333 607.232 971.741867 623.479467 989.866667L623.479467 989.866667ZM802.133333 102.4 802.133333 891.733333C802.133333 939.127467 772.334933 989.866667 721.066667 989.866667L699.733333 989.866667C662.050133 989.866667 631.466667 959.2832 631.466667 921.6 631.466667 883.9168 662.050133 853.333333 699.733333 853.333333 709.12 853.333333 716.8 845.6704 716.8 836.266667 716.8 826.862933 709.12 819.2 699.733333 819.2L187.733333 819.2 187.733333 123.733333C187.733333 73.250133 247.1936 34.133333 294.365867 34.133333L834.594133 34.133333C817.425067 52.394667 802.133333 76.458667 802.133333 102.4L802.133333 102.4ZM256 187.733333C256 197.154133 263.645867 204.8 273.066667 204.8L465.425067 204.8C474.862933 204.8 482.491733 197.154133 482.491733 187.733333 482.491733 178.312533 474.862933 170.666667 465.425067 170.666667L273.066667 170.666667C263.645867 170.666667 256 178.312533 256 187.733333L256 187.733333ZM256 290.133333C256 299.554133 263.645867 307.2 273.066667 307.2L716.8 307.2C726.237867 307.2 733.866667 299.554133 733.866667 290.133333 733.866667 280.712533 726.237867 273.066667 716.8 273.066667L273.066667 273.066667C263.645867 273.066667 256 280.712533 256 290.133333L256 290.133333ZM716.8 375.466667 273.066667 375.466667C263.645867 375.466667 256 383.112533 256 392.533333 256 401.954133 263.645867 409.6 273.066667 409.6L716.8 409.6C726.237867 409.6 733.866667 401.954133 733.866667 392.533333 733.866667 383.112533 726.237867 375.466667 716.8 375.466667L716.8 375.466667ZM716.8 477.866667 273.066667 477.866667C263.645867 477.866667 256 485.512533 256 494.933333 256 504.354133 263.645867 512 273.066667 512L716.8 512C726.237867 512 733.866667 504.354133 733.866667 494.933333 733.866667 485.512533 726.237867 477.866667 716.8 477.866667L716.8 477.866667ZM716.8 580.266667 273.066667 580.266667C263.645867 580.266667 256 587.9296 256 597.333333 256 606.737067 263.645867 614.4 273.066667 614.4L716.8 614.4C726.237867 614.4 733.866667 606.737067 733.866667 597.333333 733.866667 587.9296 726.237867 580.266667 716.8 580.266667L716.8 580.266667ZM716.8 682.666667 273.066667 682.666667C263.645867 682.666667 256 690.3296 256 699.733333 256 709.137067 263.645867 716.8 273.066667 716.8L716.8 716.8C726.237867 716.8 733.866667 709.137067 733.866667 699.733333 733.866667 690.3296 726.237867 682.666667 716.8 682.666667L716.8 682.666667Z" p-id="5130" fill="#BFCBD9"></path></svg>