<?xml version="1.0" standalone="no"?><!DOCTYPE svg PUBLIC "-//W3C//DTD SVG 1.1//EN" "http://www.w3.org/Graphics/SVG/1.1/DTD/svg11.dtd"><svg t="1552547484202" class="icon" style="" viewBox="0 0 1024 1024" version="1.1" xmlns="http://www.w3.org/2000/svg" p-id="1936" xmlns:xlink="http://www.w3.org/1999/xlink" width="200" height="200"><defs><style type="text/css"></style></defs><path d="M791.272727 256a69.818182 69.818182 0 0 1 69.818182 69.818182v418.909091a69.818182 69.818182 0 0 1-69.818182 69.818182H232.727273a69.818182 69.818182 0 0 1-69.818182-69.818182V325.818182a69.818182 69.818182 0 0 1 69.818182-69.818182h558.545454m0-69.818182H232.727273a139.636364 139.636364 0 0 0-139.636364 139.636364v418.909091a139.636364 139.636364 0 0 0 139.636364 139.636363h558.545454a139.636364 139.636364 0 0 0 139.636364-139.636363V325.818182a139.636364 139.636364 0 0 0-139.636364-139.636364z" p-id="1937"></path><path d="M791.272727 256a68.421818 68.421818 0 0 1 23.272728 4.189091l-251.81091 232.727273h-1.163636a69.818182 69.818182 0 0 1-98.676364 0h-1.163636L209.454545 260.189091a68.421818 68.421818 0 0 1 23.272728-4.189091h558.545454m0-69.818182H232.727273a139.636364 139.636364 0 0 0-124.276364 76.334546l304.872727 281.6a139.636364 139.636364 0 0 0 197.352728 0l304.872727-281.6A139.636364 139.636364 0 0 0 791.272727 186.181818z" p-id="1938"></path></svg>