<?xml version="1.0" standalone="no"?><!DOCTYPE svg PUBLIC "-//W3C//DTD SVG 1.1//EN" "http://www.w3.org/Graphics/SVG/1.1/DTD/svg11.dtd"><svg t="1551151897553" class="icon" style="" viewBox="0 0 1024 1024" version="1.1" xmlns="http://www.w3.org/2000/svg" p-id="5257" xmlns:xlink="http://www.w3.org/1999/xlink" width="200" height="200"><defs><style type="text/css"></style></defs><path d="M937 255.4C909.4 96.2 759.2-10 601.6 18 444.2 46 311.2 168.6 339 327.6c6 34.4 22.6 88 42.2 126.6l-286 412.6c-10.6 15.2-16.6 42.6-13.4 61l12.4 70.6c-11.8-68 3.2 24.6 12.4 24.2l94.2 1.4c18.2-3.2 41-18.6 51-34.2l113.2-177 1-1.2 98.8 7.8L597 612.2c43.4 7.4 105.6 4.8 142.6-1.6C896.4 582.6 965 414.4 937 255.4z m-139.4 81.4c-43.4 62.4-87.6 18.4-149.4-25.4-61.8-43.8-118-70.6-74.6-133.2 43.4-62.4 128.6-77.8 190.4-34 61.8 44 77 130.2 33.6 192.6z m0 0" p-id="5258"></path><path d="M143 916.4l1.6-15.4 274-398 16.4 15.4-278 392z" p-id="5259"></path></svg>