<?xml version="1.0" standalone="no"?><!DOCTYPE svg PUBLIC "-//W3C//DTD SVG 1.1//EN" "http://www.w3.org/Graphics/SVG/1.1/DTD/svg11.dtd"><svg t="1551151938926" class="icon" style="" viewBox="0 0 1024 1024" version="1.1" xmlns="http://www.w3.org/2000/svg" p-id="1482" xmlns:xlink="http://www.w3.org/1999/xlink" width="200" height="200"><defs><style type="text/css"></style></defs><path d="M51.2 281.6h896c25.6 0 51.2 25.6 51.2 59.733333v622.933334c0 34.133333-25.6 59.733333-51.2 59.733333H51.2c-25.6 0-51.2-25.6-51.2-59.733333V341.333333c0-34.133333 25.6-59.733333 51.2-59.733333z m59.733333 76.8c-17.066667 0-34.133333 17.066667-34.133333 42.666667v512c0 25.6 17.066667 42.666667 34.133333 42.666666h793.6c17.066667 0 34.133333-17.066667 34.133334-42.666666v-512c0-25.6-17.066667-42.666667-34.133334-42.666667H110.933333z" p-id="1483"></path><path d="M733.866667 358.4H290.133333V128c0-42.666667 34.133333-76.8 68.266667-76.8h307.2c42.666667 0 68.266667 34.133333 68.266667 76.8v230.4z m-375.466667-76.8h307.2V128H358.4v153.6zM366.933333 827.733333H187.733333c-34.133333 0-59.733333-25.6-59.733333-59.733333V529.066667c0-34.133333 25.6-59.733333 51.2-59.733334h179.2c25.6 0 51.2 25.6 51.2 59.733334V768c8.533333 34.133333-17.066667 59.733333-42.666667 59.733333z m-162.133333-76.8h145.066667V554.666667H204.8v196.266666z m341.333333-221.866666h204.8c17.066667 0 34.133333 17.066667 34.133334 42.666666s-17.066667 42.666667-34.133334 42.666667H546.133333c-25.6-8.533333-34.133333-25.6-34.133333-42.666667 0-25.6 8.533333-42.666667 34.133333-42.666666z m0 179.2h238.933334c17.066667 0 34.133333 17.066667 34.133333 42.666666s-17.066667 42.666667-34.133333 42.666667H546.133333C520.533333 785.066667 512 768 512 750.933333c0-25.6 8.533333-42.666667 34.133333-42.666666z" p-id="1484"></path></svg>