<?xml version="1.0" standalone="no"?><!DOCTYPE svg PUBLIC "-//W3C//DTD SVG 1.1//EN" "http://www.w3.org/Graphics/SVG/1.1/DTD/svg11.dtd"><svg t="1536801458434" class="icon" style="" viewBox="0 0 1024 1024" version="1.1" xmlns="http://www.w3.org/2000/svg" p-id="7986" xmlns:xlink="http://www.w3.org/1999/xlink" width="200" height="200"><defs><style type="text/css"></style></defs><path d="M979.298 344.222L543.035 778.398c-10.949 10.91-28.711 10.91-39.66 0l-8.822-8.744h-0.08l-9.49-9.53-41.118-40.922c-0.276-0.315-0.355-0.67-0.63-0.866L254.502 529.132c-10.91-10.87-10.91-28.632 0-39.463l59.55-59.235c10.91-10.83 28.711-10.83 39.7 0l169.669 170.103 356.745-354.974c10.91-10.91 28.712-10.91 39.66 0l59.51 59.156c10.871 10.949 10.871 28.593-0.039 39.503zM727.394 211.18c-40.605-37.14-45.883-105-45.883-105S580.53 88.065 477.854 88.065c-100.983 0-203.816 18.117-203.816 18.117s-6.853 68.293-45.37 103.424c-40.922 37.494-113.626 41.826-113.626 41.826s-7.798 132.884 3.348 248.281c10.91 113.625 39.07 225.91 143.242 310.98 85.228 69.554 212.834 125.205 212.834 125.205s100.116-43.757 172.623-91.215c79.754-52.303 154.742-123.904 177.664-260.017 0.985-5.514 1.733-11.067 2.481-16.581l83.417-83.023c-3.072 38.951-7.444 78.06-13.706 114.845-27.648 164.392-118.311 250.762-214.528 314.014-87.63 57.344-208.58 110.08-208.58 110.08s-154.073-67.111-257.025-151.158C90.94 770.048 56.99 634.447 43.756 497.23 30.286 357.77 39.66 197.278 39.66 197.278s87.867-5.317 137.295-50.413c46.553-42.535 54.823-124.849 54.823-124.849S355.88 0 477.854 0c124.061 0 246.114 22.016 246.114 22.016s6.34 81.88 55.335 126.66c21.347 19.418 51.397 31.154 77.943 38.283l-61.401 57.029c-22.883-5.79-49.703-15.754-68.45-32.808z" p-id="7987"></path></svg>