<?xml version="1.0" standalone="no"?><!DOCTYPE svg PUBLIC "-//W3C//DTD SVG 1.1//EN" "http://www.w3.org/Graphics/SVG/1.1/DTD/svg11.dtd"><svg t="1551152799952" class="icon" style="" viewBox="0 0 1024 1024" version="1.1" xmlns="http://www.w3.org/2000/svg" p-id="18224" xmlns:xlink="http://www.w3.org/1999/xlink" width="200" height="200"><defs><style type="text/css"></style></defs><path d="M465.985205 510.910745c-17.395608 20.97691-31.980638 44.255997-44.193539 68.877915-192.187372 29.354933-342.808158 203.958076-357.836635 379.003416H0c13.23845-191.865092 148.633395-365.506392 332.252874-424.221255C247.638216 484.428847 190.269933 393.675886 190.269933 288.279184c0.034976-158.92511 128.818191-287.762038 287.738304-287.869464a287.678345 287.678345 0 0 1 287.869464 287.674597c0 33.770665-6.396877 65.746306-17.204489 95.680844-3.841124-0.13116-7.676003-0.574607-11.510882-0.574608-20.533463 0-40.548531 2.107309-60.056445 5.498741 15.350756-30.316776 24.880492-64.08744 24.880492-100.346403 0-123.436869-100.415107-223.850727-223.914434-223.850727S254.28867 164.906021 254.28867 288.342891c-0.062457 119.278462 93.954523 216.170977 211.696535 222.567854z m490.162428 256.016239a221.308715 221.308715 0 0 1-41.89511 101.560573l47.331394 47.390105-45.217839 45.217839-47.326398-47.388855a222.074441 222.074441 0 0 1-101.56682 41.890114v67.156592h-63.95503V955.59676a221.30122 221.30122 0 0 1-101.560574-41.890114l-47.326398 47.325149-45.21784-45.21784 47.325149-47.326398a221.30122 221.30122 0 0 1-41.890114-101.560573h-67.156592v-63.955031h67.156592a221.296223 221.296223 0 0 1 41.890114-101.56682l-47.325149-47.326398 45.21784-45.217839 47.326398 47.331394a221.308715 221.308715 0 0 1 101.560574-41.89511v-67.151596h63.95503v67.151596a221.308715 221.308715 0 0 1 101.56682 41.89511l47.326398-47.395101 45.217839 45.21784-47.331394 47.390104c21.875046 29.22752 36.460076 63.765161 41.89511 101.56682h67.151596v63.955031h-67.151596z m-220.649165-191.871338c-88.197209 0-159.8907 71.69474-159.8907 159.890699 0 88.197209 71.693491 159.8907 159.8907 159.8907 88.19596 0 159.8907-71.693491 159.8907-159.8907 0-88.19596-71.69474-159.8907-159.8907-159.890699z" fill="" p-id="18225"></path></svg>