<?xml version="1.0" standalone="no"?><!DOCTYPE svg PUBLIC "-//W3C//DTD SVG 1.1//EN" "http://www.w3.org/Graphics/SVG/1.1/DTD/svg11.dtd"><svg t="1554277376302" class="icon" style="" viewBox="0 0 1024 1024" version="1.1" xmlns="http://www.w3.org/2000/svg" p-id="2466" xmlns:xlink="http://www.w3.org/1999/xlink" width="200" height="200"><defs><style type="text/css"></style></defs><path d="M899.3 844h-166v83H290.7v-83H97V332.2h193.7V221.5h442.7v110.7H927V844h-27.7zM290.7 373.7H138.5v428.8h152.2V373.7z m179.8 511.8h83V608.8h-83v276.7zM691.8 844V263H332.2v622.5H429V567.3h166v318.2h96.8V844z m193.7-470.3H733.3v428.8h152.2V373.7zM429 332.2h166v166H429v-166z m41.5 124.5h83v-83h-83v83z m55.3-235.2h-41.5V97h41.5v0.1l82.9 27.6-82.9 27.6v69.2z" p-id="2467"></path></svg>